<mxfile host="drawio-plugin" modified="2021-12-23T10:24:44.477Z" agent="5.0 (Windows NT 6.2; Win64; x64) AppleWebKit/537.36 (KHTML, like Gecko) Chrome/89.0.4389.114 Safari/537.36" etag="S1FQ-oxMCAn1m1Kh2tku" version="14.7.4" type="embed"><diagram id="C5RBs43oDa-KdzZeNtuy" name="Page-1"><mxGraphModel dx="1868" dy="780" grid="1" gridSize="10" guides="1" tooltips="1" connect="1" arrows="1" fold="1" page="1" pageScale="1" pageWidth="827" pageHeight="1169" math="0" shadow="0"><root><mxCell id="WIyWlLk6GJQsqaUBKTNV-0"/><mxCell id="WIyWlLk6GJQsqaUBKTNV-1" parent="WIyWlLk6GJQsqaUBKTNV-0"/><mxCell id="fkH8bxXwYI3lGuN-DfJu-19" value="Model" style="swimlane;" parent="WIyWlLk6GJQsqaUBKTNV-1" vertex="1"><mxGeometry x="-510" y="30" width="1290" height="1240" as="geometry"/></mxCell><mxCell id="dvcQh3w3BwJGqCjQKZjq-71" value="Mood" style="shape=folder;fontStyle=1;spacingTop=10;tabWidth=40;tabHeight=14;tabPosition=left;html=1;" parent="fkH8bxXwYI3lGuN-DfJu-19" vertex="1"><mxGeometry x="27" y="40" width="893" height="750" as="geometry"/></mxCell><mxCell id="dvcQh3w3BwJGqCjQKZjq-47" value="energy" style="shape=folder;fontStyle=1;spacingTop=10;tabWidth=40;tabHeight=14;tabPosition=left;html=1;" parent="fkH8bxXwYI3lGuN-DfJu-19" vertex="1"><mxGeometry x="27" y="850" width="763" height="350" as="geometry"/></mxCell><mxCell id="dvcQh3w3BwJGqCjQKZjq-26" value="DataHandler" style="shape=folder;fontStyle=1;spacingTop=10;tabWidth=40;tabHeight=14;tabPosition=left;html=1;" parent="fkH8bxXwYI3lGuN-DfJu-19" vertex="1"><mxGeometry x="980" y="70" width="290" height="610" as="geometry"/></mxCell><mxCell id="4BWudL8Hf-NLea9JcSVT-11" value="ColorCalculator" style="swimlane;fontStyle=1;align=center;verticalAlign=top;childLayout=stackLayout;horizontal=1;startSize=26;horizontalStack=0;resizeParent=1;resizeLast=0;collapsible=1;marginBottom=0;rounded=0;shadow=0;strokeWidth=1;" parent="fkH8bxXwYI3lGuN-DfJu-19" vertex="1"><mxGeometry x="1045" y="834" width="160" height="126" as="geometry"><mxRectangle x="230" y="140" width="160" height="26" as="alternateBounds"/></mxGeometry></mxCell><mxCell id="4BWudL8Hf-NLea9JcSVT-17" value="" style="line;html=1;strokeWidth=1;align=left;verticalAlign=middle;spacingTop=-1;spacingLeft=3;spacingRight=3;rotatable=0;labelPosition=right;points=[];portConstraint=eastwest;" parent="4BWudL8Hf-NLea9JcSVT-11" vertex="1"><mxGeometry y="26" width="160" height="54" as="geometry"/></mxCell><mxCell id="4BWudL8Hf-NLea9JcSVT-18" value="calculateColor(Mood): Color" style="text;align=left;verticalAlign=top;spacingLeft=4;spacingRight=4;overflow=hidden;rotatable=0;points=[[0,0.5],[1,0.5]];portConstraint=eastwest;rounded=0;shadow=0;html=0;" parent="4BWudL8Hf-NLea9JcSVT-11" vertex="1"><mxGeometry y="80" width="160" height="26" as="geometry"/></mxCell><mxCell id="dvcQh3w3BwJGqCjQKZjq-0" value="MoodData" style="swimlane;fontStyle=1;align=center;verticalAlign=top;childLayout=stackLayout;horizontal=1;startSize=26;horizontalStack=0;resizeParent=1;resizeParentMax=0;resizeLast=0;collapsible=1;marginBottom=0;" parent="fkH8bxXwYI3lGuN-DfJu-19" vertex="1"><mxGeometry x="490" y="70" width="410" height="340" as="geometry"/></mxCell><mxCell id="dvcQh3w3BwJGqCjQKZjq-56" value="Brauchen wir Color bei MoodData?" style="shape=note;size=9;whiteSpace=wrap;html=1;" parent="dvcQh3w3BwJGqCjQKZjq-0" vertex="1"><mxGeometry y="26" width="410" height="44" as="geometry"/></mxCell><mxCell id="dvcQh3w3BwJGqCjQKZjq-1" value="- name: String&#10;- description: String&#10;- timeStamp: LocalDateTime&#10;- moodID: int&#10;- activityLevel: int&#10;- moodValue: int&#10;- color: Color&#10;&#10;" style="text;strokeColor=none;fillColor=none;align=left;verticalAlign=top;spacingLeft=4;spacingRight=4;overflow=hidden;rotatable=0;points=[[0,0.5],[1,0.5]];portConstraint=eastwest;" parent="dvcQh3w3BwJGqCjQKZjq-0" vertex="1"><mxGeometry y="70" width="410" height="114" as="geometry"/></mxCell><mxCell id="dvcQh3w3BwJGqCjQKZjq-2" value="" style="line;strokeWidth=1;fillColor=none;align=left;verticalAlign=middle;spacingTop=-1;spacingLeft=3;spacingRight=3;rotatable=0;labelPosition=right;points=[];portConstraint=eastwest;" parent="dvcQh3w3BwJGqCjQKZjq-0" vertex="1"><mxGeometry y="184" width="410" height="8" as="geometry"/></mxCell><mxCell id="dvcQh3w3BwJGqCjQKZjq-3" value="~ Mood(name, description, timeStamp, activityLevel, moodValue)&#10;~ Mood(moodID, name, description, timeStamp, activityLevel, moodValue)&#10;&#10;+ getName(): String&#10;+ getDescription(): String&#10;+ getTimeStamp(): LocalDateTime&#10;+ getMoodID(): int&#10;+ getActivityLevel(): int&#10;+ getMoodValue(): int&#10;&#10;" style="text;strokeColor=none;fillColor=none;align=left;verticalAlign=top;spacingLeft=4;spacingRight=4;overflow=hidden;rotatable=0;points=[[0,0.5],[1,0.5]];portConstraint=eastwest;" parent="dvcQh3w3BwJGqCjQKZjq-0" vertex="1"><mxGeometry y="192" width="410" height="148" as="geometry"/></mxCell><mxCell id="dvcQh3w3BwJGqCjQKZjq-11" value="EnergyLevel" style="swimlane;fontStyle=1;align=center;verticalAlign=top;childLayout=stackLayout;horizontal=1;startSize=26;horizontalStack=0;resizeParent=1;resizeParentMax=0;resizeLast=0;collapsible=1;marginBottom=0;" parent="fkH8bxXwYI3lGuN-DfJu-19" vertex="1"><mxGeometry x="80" y="890" width="180" height="148" as="geometry"/></mxCell><mxCell id="dvcQh3w3BwJGqCjQKZjq-12" value="- energyLevel: int&#10;- energyLevelId: int&#10;- timeStamp: int&#10;&#10;" style="text;strokeColor=none;fillColor=none;align=left;verticalAlign=top;spacingLeft=4;spacingRight=4;overflow=hidden;rotatable=0;points=[[0,0.5],[1,0.5]];portConstraint=eastwest;" parent="dvcQh3w3BwJGqCjQKZjq-11" vertex="1"><mxGeometry y="26" width="180" height="54" as="geometry"/></mxCell><mxCell id="dvcQh3w3BwJGqCjQKZjq-13" value="" style="line;strokeWidth=1;fillColor=none;align=left;verticalAlign=middle;spacingTop=-1;spacingLeft=3;spacingRight=3;rotatable=0;labelPosition=right;points=[];portConstraint=eastwest;" parent="dvcQh3w3BwJGqCjQKZjq-11" vertex="1"><mxGeometry y="80" width="180" height="8" as="geometry"/></mxCell><mxCell id="dvcQh3w3BwJGqCjQKZjq-14" value="+ EnergyLevel(energyLevel int)&#10;+ getEnergyLevel()&#10;+ getTimeStamp(): int?&#10;" style="text;strokeColor=none;fillColor=none;align=left;verticalAlign=top;spacingLeft=4;spacingRight=4;overflow=hidden;rotatable=0;points=[[0,0.5],[1,0.5]];portConstraint=eastwest;" parent="dvcQh3w3BwJGqCjQKZjq-11" vertex="1"><mxGeometry y="88" width="180" height="60" as="geometry"/></mxCell><mxCell id="dvcQh3w3BwJGqCjQKZjq-4" value="DataManager" style="swimlane;fontStyle=1;align=center;verticalAlign=top;childLayout=stackLayout;horizontal=1;startSize=26;horizontalStack=0;resizeParent=1;resizeParentMax=0;resizeLast=0;collapsible=1;marginBottom=0;" parent="fkH8bxXwYI3lGuN-DfJu-19" vertex="1"><mxGeometry x="1030" y="130" width="160" height="140" as="geometry"/></mxCell><mxCell id="dvcQh3w3BwJGqCjQKZjq-5" value="- static moodCounter: int" style="text;strokeColor=none;fillColor=none;align=left;verticalAlign=top;spacingLeft=4;spacingRight=4;overflow=hidden;rotatable=0;points=[[0,0.5],[1,0.5]];portConstraint=eastwest;" parent="dvcQh3w3BwJGqCjQKZjq-4" vertex="1"><mxGeometry y="26" width="160" height="26" as="geometry"/></mxCell><mxCell id="dvcQh3w3BwJGqCjQKZjq-6" value="" style="line;strokeWidth=1;fillColor=none;align=left;verticalAlign=middle;spacingTop=-1;spacingLeft=3;spacingRight=3;rotatable=0;labelPosition=right;points=[];portConstraint=eastwest;" parent="dvcQh3w3BwJGqCjQKZjq-4" vertex="1"><mxGeometry y="52" width="160" height="8" as="geometry"/></mxCell><mxCell id="dvcQh3w3BwJGqCjQKZjq-7" value="+ createMood(Mood)&#10;+ saveMood(Mood)&#10;+ deleteMood(Mood)&#10;" style="text;strokeColor=none;fillColor=none;align=left;verticalAlign=top;spacingLeft=4;spacingRight=4;overflow=hidden;rotatable=0;points=[[0,0.5],[1,0.5]];portConstraint=eastwest;" parent="dvcQh3w3BwJGqCjQKZjq-4" vertex="1"><mxGeometry y="60" width="160" height="80" as="geometry"/></mxCell><mxCell id="dvcQh3w3BwJGqCjQKZjq-35" value="MoodFactory" style="swimlane;fontStyle=1;align=center;verticalAlign=top;childLayout=stackLayout;horizontal=1;startSize=26;horizontalStack=0;resizeParent=1;resizeParentMax=0;resizeLast=0;collapsible=1;marginBottom=0;" parent="fkH8bxXwYI3lGuN-DfJu-19" vertex="1"><mxGeometry x="40" y="130" width="420" height="138" as="geometry"/></mxCell><mxCell id="dvcQh3w3BwJGqCjQKZjq-36" value="- standardMoods : List&lt;MoodData&gt;" style="text;strokeColor=none;fillColor=none;align=left;verticalAlign=top;spacingLeft=4;spacingRight=4;overflow=hidden;rotatable=0;points=[[0,0.5],[1,0.5]];portConstraint=eastwest;fontStyle=4" parent="dvcQh3w3BwJGqCjQKZjq-35" vertex="1"><mxGeometry y="26" width="420" height="26" as="geometry"/></mxCell><mxCell id="dvcQh3w3BwJGqCjQKZjq-37" value="" style="line;strokeWidth=1;fillColor=none;align=left;verticalAlign=middle;spacingTop=-1;spacingLeft=3;spacingRight=3;rotatable=0;labelPosition=right;points=[];portConstraint=eastwest;" parent="dvcQh3w3BwJGqCjQKZjq-35" vertex="1"><mxGeometry y="52" width="420" height="8" as="geometry"/></mxCell><mxCell id="dvcQh3w3BwJGqCjQKZjq-38" value="+ createStandardMood(type: String, timeStamp: LocalDateTime): MoodData" style="text;strokeColor=none;fillColor=none;align=left;verticalAlign=top;spacingLeft=4;spacingRight=4;overflow=hidden;rotatable=0;points=[[0,0.5],[1,0.5]];portConstraint=eastwest;fontStyle=4" parent="dvcQh3w3BwJGqCjQKZjq-35" vertex="1"><mxGeometry y="60" width="420" height="26" as="geometry"/></mxCell><mxCell id="6" value="+ reloadStandardMoods()" style="text;strokeColor=none;fillColor=none;align=left;verticalAlign=top;spacingLeft=4;spacingRight=4;overflow=hidden;rotatable=0;points=[[0,0.5],[1,0.5]];portConstraint=eastwest;fontStyle=4" vertex="1" parent="dvcQh3w3BwJGqCjQKZjq-35"><mxGeometry y="86" width="420" height="26" as="geometry"/></mxCell><mxCell id="7" value="- loadFromJSONFile()" style="text;strokeColor=none;fillColor=none;align=left;verticalAlign=top;spacingLeft=4;spacingRight=4;overflow=hidden;rotatable=0;points=[[0,0.5],[1,0.5]];portConstraint=eastwest;fontStyle=4" vertex="1" parent="dvcQh3w3BwJGqCjQKZjq-35"><mxGeometry y="112" width="420" height="26" as="geometry"/></mxCell><mxCell id="dvcQh3w3BwJGqCjQKZjq-40" style="edgeStyle=orthogonalEdgeStyle;rounded=0;orthogonalLoop=1;jettySize=auto;html=1;exitX=0;exitY=0.5;exitDx=0;exitDy=0;exitPerimeter=0;" parent="fkH8bxXwYI3lGuN-DfJu-19" source="dvcQh3w3BwJGqCjQKZjq-39" target="dvcQh3w3BwJGqCjQKZjq-35" edge="1"><mxGeometry relative="1" as="geometry"/></mxCell><mxCell id="dvcQh3w3BwJGqCjQKZjq-39" value="StandardMoods are saved in a json file to make it extendable" style="shape=note;size=13;whiteSpace=wrap;html=1;" parent="fkH8bxXwYI3lGuN-DfJu-19" vertex="1"><mxGeometry x="330" y="70" width="120" height="47" as="geometry"/></mxCell><mxCell id="dvcQh3w3BwJGqCjQKZjq-42" style="edgeStyle=orthogonalEdgeStyle;rounded=0;orthogonalLoop=1;jettySize=auto;html=1;" parent="fkH8bxXwYI3lGuN-DfJu-19" source="dvcQh3w3BwJGqCjQKZjq-41" edge="1" target="dvcQh3w3BwJGqCjQKZjq-65"><mxGeometry relative="1" as="geometry"><mxPoint x="650" y="390" as="targetPoint"/></mxGeometry></mxCell><mxCell id="dvcQh3w3BwJGqCjQKZjq-41" value="Gehört das nicht in Controller oder in Views?" style="shape=note;size=20;whiteSpace=wrap;html=1;" parent="fkH8bxXwYI3lGuN-DfJu-19" vertex="1"><mxGeometry x="790" y="580" width="100" height="100" as="geometry"/></mxCell><mxCell id="dvcQh3w3BwJGqCjQKZjq-46" value="1" style="endArrow=open;html=1;endSize=12;startArrow=diamondThin;startSize=14;startFill=0;edgeStyle=orthogonalEdgeStyle;align=left;verticalAlign=bottom;rounded=0;" parent="fkH8bxXwYI3lGuN-DfJu-19" source="dvcQh3w3BwJGqCjQKZjq-65" target="dvcQh3w3BwJGqCjQKZjq-0" edge="1"><mxGeometry x="-1" y="3" relative="1" as="geometry"><mxPoint x="520" y="160" as="sourcePoint"/><mxPoint x="289" y="292" as="targetPoint"/><Array as="points"><mxPoint x="255" y="320"/></Array></mxGeometry></mxCell><mxCell id="dvcQh3w3BwJGqCjQKZjq-48" value="EnergyLevelManager" style="swimlane;fontStyle=1;align=center;verticalAlign=top;childLayout=stackLayout;horizontal=1;startSize=26;horizontalStack=0;resizeParent=1;resizeLast=0;collapsible=1;marginBottom=0;rounded=0;shadow=0;strokeWidth=1;" parent="fkH8bxXwYI3lGuN-DfJu-19" vertex="1"><mxGeometry x="460" y="890" width="280" height="240" as="geometry"><mxRectangle x="230" y="140" width="160" height="26" as="alternateBounds"/></mxGeometry></mxCell><mxCell id="dvcQh3w3BwJGqCjQKZjq-49" value="- energyLevelCollection: Collection&lt;EnergyLevel&gt;" style="text;align=left;verticalAlign=top;spacingLeft=4;spacingRight=4;overflow=hidden;rotatable=0;points=[[0,0.5],[1,0.5]];portConstraint=eastwest;rounded=0;shadow=0;html=0;" parent="dvcQh3w3BwJGqCjQKZjq-48" vertex="1"><mxGeometry y="26" width="280" height="26" as="geometry"/></mxCell><mxCell id="dvcQh3w3BwJGqCjQKZjq-50" value="" style="line;html=1;strokeWidth=1;align=left;verticalAlign=middle;spacingTop=-1;spacingLeft=3;spacingRight=3;rotatable=0;labelPosition=right;points=[];portConstraint=eastwest;" parent="dvcQh3w3BwJGqCjQKZjq-48" vertex="1"><mxGeometry y="52" width="280" height="54" as="geometry"/></mxCell><mxCell id="dvcQh3w3BwJGqCjQKZjq-53" value="createStandardMood()&#10;+ changeTimeStamp(Mood)&#10;+ changeName(Mood)&#10;+ changeTimeStamp(Mood)&#10;&#10;&#10;" style="text;align=left;verticalAlign=top;spacingLeft=4;spacingRight=4;overflow=hidden;rotatable=0;points=[[0,0.5],[1,0.5]];portConstraint=eastwest;rounded=0;shadow=0;html=0;" parent="dvcQh3w3BwJGqCjQKZjq-48" vertex="1"><mxGeometry y="106" width="280" height="68" as="geometry"/></mxCell><mxCell id="dvcQh3w3BwJGqCjQKZjq-54" value="Package evt zur späteren Implemenation" style="shape=note;size=20;whiteSpace=wrap;html=1;" parent="fkH8bxXwYI3lGuN-DfJu-19" vertex="1"><mxGeometry x="97" y="1080" width="100" height="100" as="geometry"/></mxCell><mxCell id="dvcQh3w3BwJGqCjQKZjq-55" value="Rückgabewert Zeitstempel überlegen" style="shape=note;size=20;whiteSpace=wrap;html=1;" parent="fkH8bxXwYI3lGuN-DfJu-19" vertex="1"><mxGeometry x="210" y="1020" width="130" height="50" as="geometry"/></mxCell><mxCell id="dvcQh3w3BwJGqCjQKZjq-65" value="MoodManager" style="swimlane;fontStyle=1;align=center;verticalAlign=top;childLayout=stackLayout;horizontal=1;startSize=26;horizontalStack=0;resizeParent=1;resizeLast=0;collapsible=1;marginBottom=0;rounded=0;shadow=0;strokeWidth=1;" parent="fkH8bxXwYI3lGuN-DfJu-19" vertex="1"><mxGeometry x="60" y="480" width="700" height="300" as="geometry"><mxRectangle x="230" y="140" width="160" height="26" as="alternateBounds"/></mxGeometry></mxCell><mxCell id="dvcQh3w3BwJGqCjQKZjq-66" value="- moods: List&lt;MoodData&gt;" style="text;align=left;verticalAlign=top;spacingLeft=4;spacingRight=4;overflow=hidden;rotatable=0;points=[[0,0.5],[1,0.5]];portConstraint=eastwest;rounded=0;shadow=0;html=0;" parent="dvcQh3w3BwJGqCjQKZjq-65" vertex="1"><mxGeometry y="26" width="700" height="26" as="geometry"/></mxCell><mxCell id="dvcQh3w3BwJGqCjQKZjq-67" value="" style="line;html=1;strokeWidth=1;align=left;verticalAlign=middle;spacingTop=-1;spacingLeft=3;spacingRight=3;rotatable=0;labelPosition=right;points=[];portConstraint=eastwest;" parent="dvcQh3w3BwJGqCjQKZjq-65" vertex="1"><mxGeometry y="52" width="700" height="54" as="geometry"/></mxCell><mxCell id="dvcQh3w3BwJGqCjQKZjq-70" value="+ MoodManager()&#10;+ getMoods(): List&lt;MoodData&gt;&#10;+ createMood(name: String, description: String, timeStamp: LocalDateTime, acticityLevel:int, moodValue:int)&#10;&#10;+ changeName(mood: MoodData, name:String)&#10;+ changeDescription(mood:MoodData, description: String)&#10;+ changeTimeStamp(mood: MoodData, timeStamp: LocalDateTime)&#10;+ changeActivityLevel(mood:MoodData, activityLevel:int)&#10;+ changeMoodValue(mood:MoodData, moodValue:int)&#10;&#10;+deleteMood(mood: MoodData)&#10;&#10;&#10;" style="text;align=left;verticalAlign=top;spacingLeft=4;spacingRight=4;overflow=hidden;rotatable=0;points=[[0,0.5],[1,0.5]];portConstraint=eastwest;rounded=0;shadow=0;html=0;" parent="dvcQh3w3BwJGqCjQKZjq-65" vertex="1"><mxGeometry y="106" width="700" height="168" as="geometry"/></mxCell><mxCell id="fkH8bxXwYI3lGuN-DfJu-20" value="View" style="swimlane;" parent="WIyWlLk6GJQsqaUBKTNV-1" vertex="1"><mxGeometry x="900" y="20" width="540" height="550" as="geometry"/></mxCell><mxCell id="4BWudL8Hf-NLea9JcSVT-4" value="ConsoleView" style="swimlane;fontStyle=0;align=center;verticalAlign=top;childLayout=stackLayout;horizontal=1;startSize=26;horizontalStack=0;resizeParent=1;resizeLast=0;collapsible=1;marginBottom=0;rounded=0;shadow=0;strokeWidth=1;" parent="fkH8bxXwYI3lGuN-DfJu-20" vertex="1"><mxGeometry x="30" y="270" width="160" height="190" as="geometry"><mxRectangle x="230" y="140" width="160" height="26" as="alternateBounds"/></mxGeometry></mxCell><mxCell id="4BWudL8Hf-NLea9JcSVT-9" value="" style="line;html=1;strokeWidth=1;align=left;verticalAlign=middle;spacingTop=-1;spacingLeft=3;spacingRight=3;rotatable=0;labelPosition=right;points=[];portConstraint=eastwest;" parent="4BWudL8Hf-NLea9JcSVT-4" vertex="1"><mxGeometry y="26" width="160" height="54" as="geometry"/></mxCell><mxCell id="rqT9r3bYiYjDLUNCfU_x-0" value="updateView()" style="text;align=left;verticalAlign=top;spacingLeft=4;spacingRight=4;overflow=hidden;rotatable=0;points=[[0,0.5],[1,0.5]];portConstraint=eastwest;rounded=0;shadow=0;html=0;" parent="4BWudL8Hf-NLea9JcSVT-4" vertex="1"><mxGeometry y="80" width="160" height="26" as="geometry"/></mxCell><mxCell id="rqT9r3bYiYjDLUNCfU_x-1" value="fetchData()" style="text;align=left;verticalAlign=top;spacingLeft=4;spacingRight=4;overflow=hidden;rotatable=0;points=[[0,0.5],[1,0.5]];portConstraint=eastwest;rounded=0;shadow=0;html=0;" parent="4BWudL8Hf-NLea9JcSVT-4" vertex="1"><mxGeometry y="106" width="160" height="26" as="geometry"/></mxCell><mxCell id="rqT9r3bYiYjDLUNCfU_x-11" value="showView()&#10;openMoodStats()&#10;reduceMoodToSinglePoint()&#10;" style="text;align=left;verticalAlign=top;spacingLeft=4;spacingRight=4;overflow=hidden;rotatable=0;points=[[0,0.5],[1,0.5]];portConstraint=eastwest;rounded=0;shadow=0;html=0;" parent="4BWudL8Hf-NLea9JcSVT-4" vertex="1"><mxGeometry y="132" width="160" height="58" as="geometry"/></mxCell><mxCell id="lSLAHA1t7lKVyarh-dw1-34" value="StatsView" style="swimlane;fontStyle=0;align=center;verticalAlign=top;childLayout=stackLayout;horizontal=1;startSize=26;horizontalStack=0;resizeParent=1;resizeLast=0;collapsible=1;marginBottom=0;rounded=0;shadow=0;strokeWidth=1;" parent="fkH8bxXwYI3lGuN-DfJu-20" vertex="1"><mxGeometry x="240" y="270" width="160" height="184" as="geometry"><mxRectangle x="230" y="140" width="160" height="26" as="alternateBounds"/></mxGeometry></mxCell><mxCell id="lSLAHA1t7lKVyarh-dw1-35" value="moodStats: Collection" style="text;align=left;verticalAlign=top;spacingLeft=4;spacingRight=4;overflow=hidden;rotatable=0;points=[[0,0.5],[1,0.5]];portConstraint=eastwest;rounded=0;shadow=0;html=0;" parent="lSLAHA1t7lKVyarh-dw1-34" vertex="1"><mxGeometry y="26" width="160" height="26" as="geometry"/></mxCell><mxCell id="lSLAHA1t7lKVyarh-dw1-36" value="" style="line;html=1;strokeWidth=1;align=left;verticalAlign=middle;spacingTop=-1;spacingLeft=3;spacingRight=3;rotatable=0;labelPosition=right;points=[];portConstraint=eastwest;" parent="lSLAHA1t7lKVyarh-dw1-34" vertex="1"><mxGeometry y="52" width="160" height="54" as="geometry"/></mxCell><mxCell id="rqT9r3bYiYjDLUNCfU_x-19" value="updateView()" style="text;align=left;verticalAlign=top;spacingLeft=4;spacingRight=4;overflow=hidden;rotatable=0;points=[[0,0.5],[1,0.5]];portConstraint=eastwest;rounded=0;shadow=0;html=0;" parent="lSLAHA1t7lKVyarh-dw1-34" vertex="1"><mxGeometry y="106" width="160" height="26" as="geometry"/></mxCell><mxCell id="rqT9r3bYiYjDLUNCfU_x-21" value="fetchData()" style="text;align=left;verticalAlign=top;spacingLeft=4;spacingRight=4;overflow=hidden;rotatable=0;points=[[0,0.5],[1,0.5]];portConstraint=eastwest;rounded=0;shadow=0;html=0;" parent="lSLAHA1t7lKVyarh-dw1-34" vertex="1"><mxGeometry y="132" width="160" height="26" as="geometry"/></mxCell><mxCell id="rqT9r3bYiYjDLUNCfU_x-20" value="showView()" style="text;align=left;verticalAlign=top;spacingLeft=4;spacingRight=4;overflow=hidden;rotatable=0;points=[[0,0.5],[1,0.5]];portConstraint=eastwest;rounded=0;shadow=0;html=0;" parent="lSLAHA1t7lKVyarh-dw1-34" vertex="1"><mxGeometry y="158" width="160" height="26" as="geometry"/></mxCell><mxCell id="rqT9r3bYiYjDLUNCfU_x-12" value="&lt;&lt;interface&gt;&gt;&#10;View" style="swimlane;fontStyle=0;align=center;verticalAlign=top;childLayout=stackLayout;horizontal=1;startSize=40;horizontalStack=0;resizeParent=1;resizeLast=0;collapsible=1;marginBottom=0;rounded=0;shadow=0;strokeWidth=1;" parent="fkH8bxXwYI3lGuN-DfJu-20" vertex="1"><mxGeometry x="130" y="40" width="160" height="182" as="geometry"><mxRectangle x="230" y="140" width="160" height="26" as="alternateBounds"/></mxGeometry></mxCell><mxCell id="rqT9r3bYiYjDLUNCfU_x-14" value="" style="line;html=1;strokeWidth=1;align=left;verticalAlign=middle;spacingTop=-1;spacingLeft=3;spacingRight=3;rotatable=0;labelPosition=right;points=[];portConstraint=eastwest;" parent="rqT9r3bYiYjDLUNCfU_x-12" vertex="1"><mxGeometry y="40" width="160" height="54" as="geometry"/></mxCell><mxCell id="rqT9r3bYiYjDLUNCfU_x-16" value="updateView()" style="text;align=left;verticalAlign=top;spacingLeft=4;spacingRight=4;overflow=hidden;rotatable=0;points=[[0,0.5],[1,0.5]];portConstraint=eastwest;rounded=0;shadow=0;html=0;" parent="rqT9r3bYiYjDLUNCfU_x-12" vertex="1"><mxGeometry y="94" width="160" height="26" as="geometry"/></mxCell><mxCell id="rqT9r3bYiYjDLUNCfU_x-18" value="showView()" style="text;align=left;verticalAlign=top;spacingLeft=4;spacingRight=4;overflow=hidden;rotatable=0;points=[[0,0.5],[1,0.5]];portConstraint=eastwest;rounded=0;shadow=0;html=0;" parent="rqT9r3bYiYjDLUNCfU_x-12" vertex="1"><mxGeometry y="120" width="160" height="26" as="geometry"/></mxCell><mxCell id="rqT9r3bYiYjDLUNCfU_x-17" value="fetchData()" style="text;align=left;verticalAlign=top;spacingLeft=4;spacingRight=4;overflow=hidden;rotatable=0;points=[[0,0.5],[1,0.5]];portConstraint=eastwest;rounded=0;shadow=0;html=0;" parent="rqT9r3bYiYjDLUNCfU_x-12" vertex="1"><mxGeometry y="146" width="160" height="26" as="geometry"/></mxCell><mxCell id="rqT9r3bYiYjDLUNCfU_x-22" value="" style="endArrow=block;html=1;rounded=0;entryX=0.5;entryY=1;entryDx=0;entryDy=0;exitX=0.5;exitY=0;exitDx=0;exitDy=0;endFill=0;" parent="fkH8bxXwYI3lGuN-DfJu-20" source="4BWudL8Hf-NLea9JcSVT-4" target="rqT9r3bYiYjDLUNCfU_x-12" edge="1"><mxGeometry width="50" height="50" relative="1" as="geometry"><mxPoint x="-120" y="410" as="sourcePoint"/><mxPoint x="-70" y="360" as="targetPoint"/><Array as="points"><mxPoint x="110" y="240"/><mxPoint x="210" y="240"/></Array></mxGeometry></mxCell><mxCell id="OMDD3wWIrq1Nu_wf7v3i-0" value="Controller speichert wie Scenes zur Wiederverwendung?" style="whiteSpace=wrap;html=1;shape=mxgraph.basic.rectCallout;dx=30;dy=15;boundedLbl=1;" parent="fkH8bxXwYI3lGuN-DfJu-20" vertex="1"><mxGeometry x="350" y="60" width="160" height="100" as="geometry"/></mxCell><mxCell id="fkH8bxXwYI3lGuN-DfJu-21" value="Controller" style="swimlane;" parent="WIyWlLk6GJQsqaUBKTNV-1" vertex="1"><mxGeometry x="930" y="585" width="550" height="535" as="geometry"/></mxCell><mxCell id="rqT9r3bYiYjDLUNCfU_x-2" value="ConsoleController" style="swimlane;fontStyle=0;align=center;verticalAlign=top;childLayout=stackLayout;horizontal=1;startSize=26;horizontalStack=0;resizeParent=1;resizeLast=0;collapsible=1;marginBottom=0;rounded=0;shadow=0;strokeWidth=1;" parent="fkH8bxXwYI3lGuN-DfJu-21" vertex="1"><mxGeometry x="60" y="315" width="160" height="187" as="geometry"><mxRectangle x="230" y="140" width="160" height="26" as="alternateBounds"/></mxGeometry></mxCell><mxCell id="rqT9r3bYiYjDLUNCfU_x-3" value="" style="line;html=1;strokeWidth=1;align=left;verticalAlign=middle;spacingTop=-1;spacingLeft=3;spacingRight=3;rotatable=0;labelPosition=right;points=[];portConstraint=eastwest;" parent="rqT9r3bYiYjDLUNCfU_x-2" vertex="1"><mxGeometry y="26" width="160" height="54" as="geometry"/></mxCell><mxCell id="rqT9r3bYiYjDLUNCfU_x-4" value="updateModel()" style="text;align=left;verticalAlign=top;spacingLeft=4;spacingRight=4;overflow=hidden;rotatable=0;points=[[0,0.5],[1,0.5]];portConstraint=eastwest;rounded=0;shadow=0;html=0;" parent="rqT9r3bYiYjDLUNCfU_x-2" vertex="1"><mxGeometry y="80" width="160" height="26" as="geometry"/></mxCell><mxCell id="rqT9r3bYiYjDLUNCfU_x-5" value="getInputFromView()" style="text;align=left;verticalAlign=top;spacingLeft=4;spacingRight=4;overflow=hidden;rotatable=0;points=[[0,0.5],[1,0.5]];portConstraint=eastwest;rounded=0;shadow=0;html=0;" parent="rqT9r3bYiYjDLUNCfU_x-2" vertex="1"><mxGeometry y="106" width="160" height="26" as="geometry"/></mxCell><mxCell id="rqT9r3bYiYjDLUNCfU_x-10" value="callbackToView()&#10;askMood()" style="text;align=left;verticalAlign=top;spacingLeft=4;spacingRight=4;overflow=hidden;rotatable=0;points=[[0,0.5],[1,0.5]];portConstraint=eastwest;rounded=0;shadow=0;html=0;" parent="rqT9r3bYiYjDLUNCfU_x-2" vertex="1"><mxGeometry y="132" width="160" height="26" as="geometry"/></mxCell><mxCell id="rqT9r3bYiYjDLUNCfU_x-24" value="StatsController" style="swimlane;fontStyle=0;align=center;verticalAlign=top;childLayout=stackLayout;horizontal=1;startSize=26;horizontalStack=0;resizeParent=1;resizeLast=0;collapsible=1;marginBottom=0;rounded=0;shadow=0;strokeWidth=1;" parent="fkH8bxXwYI3lGuN-DfJu-21" vertex="1"><mxGeometry x="270" y="307" width="160" height="184" as="geometry"><mxRectangle x="230" y="140" width="160" height="26" as="alternateBounds"/></mxGeometry></mxCell><mxCell id="rqT9r3bYiYjDLUNCfU_x-25" value="moodStats: Collection" style="text;align=left;verticalAlign=top;spacingLeft=4;spacingRight=4;overflow=hidden;rotatable=0;points=[[0,0.5],[1,0.5]];portConstraint=eastwest;rounded=0;shadow=0;html=0;" parent="rqT9r3bYiYjDLUNCfU_x-24" vertex="1"><mxGeometry y="26" width="160" height="26" as="geometry"/></mxCell><mxCell id="rqT9r3bYiYjDLUNCfU_x-26" value="" style="line;html=1;strokeWidth=1;align=left;verticalAlign=middle;spacingTop=-1;spacingLeft=3;spacingRight=3;rotatable=0;labelPosition=right;points=[];portConstraint=eastwest;" parent="rqT9r3bYiYjDLUNCfU_x-24" vertex="1"><mxGeometry y="52" width="160" height="54" as="geometry"/></mxCell><mxCell id="rqT9r3bYiYjDLUNCfU_x-42" value="updateModel()" style="text;align=left;verticalAlign=top;spacingLeft=4;spacingRight=4;overflow=hidden;rotatable=0;points=[[0,0.5],[1,0.5]];portConstraint=eastwest;rounded=0;shadow=0;html=0;" parent="rqT9r3bYiYjDLUNCfU_x-24" vertex="1"><mxGeometry y="106" width="160" height="26" as="geometry"/></mxCell><mxCell id="rqT9r3bYiYjDLUNCfU_x-41" value="getInputFromView()" style="text;align=left;verticalAlign=top;spacingLeft=4;spacingRight=4;overflow=hidden;rotatable=0;points=[[0,0.5],[1,0.5]];portConstraint=eastwest;rounded=0;shadow=0;html=0;" parent="rqT9r3bYiYjDLUNCfU_x-24" vertex="1"><mxGeometry y="132" width="160" height="26" as="geometry"/></mxCell><mxCell id="rqT9r3bYiYjDLUNCfU_x-40" value="callbackToView()" style="text;align=left;verticalAlign=top;spacingLeft=4;spacingRight=4;overflow=hidden;rotatable=0;points=[[0,0.5],[1,0.5]];portConstraint=eastwest;rounded=0;shadow=0;html=0;" parent="rqT9r3bYiYjDLUNCfU_x-24" vertex="1"><mxGeometry y="158" width="160" height="26" as="geometry"/></mxCell><mxCell id="rqT9r3bYiYjDLUNCfU_x-30" value="&lt;&lt;interface&gt;&gt;&#10;Controller" style="swimlane;fontStyle=0;align=center;verticalAlign=top;childLayout=stackLayout;horizontal=1;startSize=40;horizontalStack=0;resizeParent=1;resizeLast=0;collapsible=1;marginBottom=0;rounded=0;shadow=0;strokeWidth=1;" parent="fkH8bxXwYI3lGuN-DfJu-21" vertex="1"><mxGeometry x="160" y="77" width="160" height="182" as="geometry"><mxRectangle x="230" y="140" width="160" height="26" as="alternateBounds"/></mxGeometry></mxCell><mxCell id="rqT9r3bYiYjDLUNCfU_x-31" value="" style="line;html=1;strokeWidth=1;align=left;verticalAlign=middle;spacingTop=-1;spacingLeft=3;spacingRight=3;rotatable=0;labelPosition=right;points=[];portConstraint=eastwest;" parent="rqT9r3bYiYjDLUNCfU_x-30" vertex="1"><mxGeometry y="40" width="160" height="54" as="geometry"/></mxCell><mxCell id="rqT9r3bYiYjDLUNCfU_x-39" value="callbackToView()" style="text;align=left;verticalAlign=top;spacingLeft=4;spacingRight=4;overflow=hidden;rotatable=0;points=[[0,0.5],[1,0.5]];portConstraint=eastwest;rounded=0;shadow=0;html=0;" parent="rqT9r3bYiYjDLUNCfU_x-30" vertex="1"><mxGeometry y="94" width="160" height="26" as="geometry"/></mxCell><mxCell id="rqT9r3bYiYjDLUNCfU_x-38" value="getInputFromView()" style="text;align=left;verticalAlign=top;spacingLeft=4;spacingRight=4;overflow=hidden;rotatable=0;points=[[0,0.5],[1,0.5]];portConstraint=eastwest;rounded=0;shadow=0;html=0;" parent="rqT9r3bYiYjDLUNCfU_x-30" vertex="1"><mxGeometry y="120" width="160" height="26" as="geometry"/></mxCell><mxCell id="rqT9r3bYiYjDLUNCfU_x-37" value="updateModel()" style="text;align=left;verticalAlign=top;spacingLeft=4;spacingRight=4;overflow=hidden;rotatable=0;points=[[0,0.5],[1,0.5]];portConstraint=eastwest;rounded=0;shadow=0;html=0;" parent="rqT9r3bYiYjDLUNCfU_x-30" vertex="1"><mxGeometry y="146" width="160" height="26" as="geometry"/></mxCell><mxCell id="rqT9r3bYiYjDLUNCfU_x-35" value="" style="endArrow=block;html=1;rounded=0;entryX=0.5;entryY=1;entryDx=0;entryDy=0;exitX=0.5;exitY=0;exitDx=0;exitDy=0;endFill=0;" parent="fkH8bxXwYI3lGuN-DfJu-21" source="rqT9r3bYiYjDLUNCfU_x-2" target="rqT9r3bYiYjDLUNCfU_x-30" edge="1"><mxGeometry width="50" height="50" relative="1" as="geometry"><mxPoint x="140" y="307" as="sourcePoint"/><mxPoint x="-950" y="377" as="targetPoint"/><Array as="points"><mxPoint x="140" y="277"/><mxPoint x="240" y="277"/></Array></mxGeometry></mxCell><mxCell id="rqT9r3bYiYjDLUNCfU_x-36" value="" style="endArrow=block;html=1;rounded=0;exitX=0.5;exitY=0;exitDx=0;exitDy=0;endFill=0;" parent="fkH8bxXwYI3lGuN-DfJu-21" source="rqT9r3bYiYjDLUNCfU_x-24" edge="1"><mxGeometry width="50" height="50" relative="1" as="geometry"><mxPoint x="150" y="327" as="sourcePoint"/><mxPoint x="240" y="257" as="targetPoint"/><Array as="points"><mxPoint x="350" y="287"/><mxPoint x="240" y="287"/></Array></mxGeometry></mxCell><mxCell id="rqT9r3bYiYjDLUNCfU_x-23" value="" style="endArrow=block;html=1;rounded=0;exitX=0.5;exitY=0;exitDx=0;exitDy=0;endFill=0;" parent="WIyWlLk6GJQsqaUBKTNV-1" source="lSLAHA1t7lKVyarh-dw1-34" edge="1"><mxGeometry width="50" height="50" relative="1" as="geometry"><mxPoint x="1030" y="310" as="sourcePoint"/><mxPoint x="1120" y="240" as="targetPoint"/><Array as="points"><mxPoint x="1230" y="270"/><mxPoint x="1120" y="270"/></Array></mxGeometry></mxCell></root></mxGraphModel></diagram></mxfile>